<svg xmlns="http://www.w3.org/2000/svg" width="90.88" height="90.46" viewBox="0 0 90.88 90.46"><defs><style>.cls-1{fill:none;stroke:red;stroke-linecap:round;stroke-linejoin:round;stroke-width:2px;}</style></defs><title>search</title><path class="cls-1" d="M-823-4.88l-8.26,8.26-17.87,17.88a7.51,7.51,0,0,1-10.63,0,7.51,7.51,0,0,1,0-10.63l17.88-17.87,8.36-8.36A32.57,32.57,0,0,0-823-4.88Z" transform="translate(862.96 66)"/><path class="cls-1" d="M-823-4.88l-8.26,8.26L-841.88-7.24l8.36-8.36A32.57,32.57,0,0,0-823-4.88Z" transform="translate(862.96 66)"/><path class="cls-1" d="M-773.09-32.44A32.57,32.57,0,0,1-805.65.13a32.36,32.36,0,0,1-17.35-5A32.57,32.57,0,0,1-833.52-15.6a32.34,32.34,0,0,1-4.69-16.84A32.56,32.56,0,0,1-805.65-65,32.56,32.56,0,0,1-773.09-32.44Z" transform="translate(862.96 66)"/><circle class="cls-1" cx="57.31" cy="33.57" r="17.53"/><line class="cls-1" x1="57.31" y1="9.14" x2="57.31" y2="21.67"/><line class="cls-1" x1="57.31" y1="45.47" x2="57.31" y2="57.99"/><line class="cls-1" x1="32.89" y1="33.57" x2="45.41" y2="33.57"/><line class="cls-1" x1="69.21" y1="33.57" x2="81.74" y2="33.57"/><circle class="cls-1" cx="57.31" cy="33.78" r="1.25"/></svg>