<svg xmlns="http://www.w3.org/2000/svg" width="93" height="93" viewBox="0 0 93 93"><defs><style>.cls-1{fill:red;}.cls-2{fill:none;stroke:red;stroke-linecap:round;stroke-linejoin:round;stroke-width:2px;}</style></defs><title>target</title><path class="cls-1" d="M-535.5,18.4a30.93,30.93,0,0,1-30.9-30.9,30.93,30.93,0,0,1,30.9-30.9A30.38,30.38,0,0,1-523-40.75a1,1,0,0,1,.5,1.32,1,1,0,0,1-1.32.5A28.43,28.43,0,0,0-535.5-41.4a28.93,28.93,0,0,0-28.9,28.9,28.93,28.93,0,0,0,28.9,28.9,28.93,28.93,0,0,0,28.9-28.9,28.62,28.62,0,0,0-2.16-10.95,1,1,0,0,1,.54-1.31,1,1,0,0,1,1.31.54A30.65,30.65,0,0,1-504.6-12.5,30.93,30.93,0,0,1-535.5,18.4Zm0-14.3a16.62,16.62,0,0,1-16.6-16.6,16.62,16.62,0,0,1,16.6-16.6,16.48,16.48,0,0,1,6.71,1.41,1,1,0,0,1,.51,1.32,1,1,0,0,1-1.32.51,14.45,14.45,0,0,0-5.9-1.24,14.62,14.62,0,0,0-14.6,14.6A14.62,14.62,0,0,0-535.5,2.1a14.62,14.62,0,0,0,14.6-14.6,14.66,14.66,0,0,0-.89-5,1,1,0,0,1,.6-1.28,1,1,0,0,1,1.28.6,16.61,16.61,0,0,1,1,5.72A16.62,16.62,0,0,1-535.5,4.1Z" transform="translate(582 59)"/><path class="cls-1" d="M-535.5,34A46.55,46.55,0,0,1-582-12.5,46.55,46.55,0,0,1-535.5-59a46.05,46.05,0,0,1,18.8,4,1,1,0,0,1,.51,1.32,1,1,0,0,1-1.32.51,44,44,0,0,0-18-3.79A44.55,44.55,0,0,0-580-12.5,44.55,44.55,0,0,0-535.5,32,44.55,44.55,0,0,0-491-12.5a44,44,0,0,0-3.55-17.43,1,1,0,0,1,.53-1.31,1,1,0,0,1,1.31.52A46.13,46.13,0,0,1-489-12.5,46.55,46.55,0,0,1-535.5,34Zm0-29.9a16.62,16.62,0,0,1-16.6-16.6,16.62,16.62,0,0,1,16.6-16.6,16.32,16.32,0,0,1,6.71,1.41,1,1,0,0,1,.51,1.32,1,1,0,0,1-1.32.51,14.45,14.45,0,0,0-5.9-1.24,14.62,14.62,0,0,0-14.6,14.6A14.62,14.62,0,0,0-535.5,2.1a14.62,14.62,0,0,0,14.6-14.6,14.66,14.66,0,0,0-.89-5,1,1,0,0,1,.6-1.28,1,1,0,0,1,1.28.6,16.61,16.61,0,0,1,1,5.72A16.62,16.62,0,0,1-535.5,4.1Z" transform="translate(582 59)"/><path class="cls-2" d="M-529.19-26.77" transform="translate(582 59)"/><path class="cls-2" d="M-523.42-39.84" transform="translate(582 59)"/><path class="cls-2" d="M-517.1-54.13" transform="translate(582 59)"/><path class="cls-2" d="M-493.63-30.32" transform="translate(582 59)"/><path class="cls-2" d="M-507.84-23.84" transform="translate(582 59)"/><path class="cls-2" d="M-520.85-17.88" transform="translate(582 59)"/><path class="cls-1" d="M-535.07-11.07a1,1,0,0,1-.71-.3,1,1,0,0,1,0-1.41l21.29-21.29a1,1,0,0,1,1.42,0,1,1,0,0,1,0,1.41l-21.3,21.29A1,1,0,0,1-535.07-11.07Z" transform="translate(582 59)"/><path class="cls-1" d="M-503-30.24a.83.83,0,0,1-.22,0l-10.46-2.41a1,1,0,0,1-.75-.75l-2.41-10.45a1,1,0,0,1,.27-.94l12.87-12.87a1,1,0,0,1,1-.25,1,1,0,0,1,.7.74l2.27,9.84,9.85,2.28a1,1,0,0,1,.73.69,1,1,0,0,1-.25,1l-12.87,12.87A1,1,0,0,1-503-30.24Zm-9.62-4.25,9.31,2.15,11.2-11.2-8.7-2a1,1,0,0,1-.75-.75l-2-8.7-11.2,11.21Z" transform="translate(582 59)"/></svg>