<svg xmlns="http://www.w3.org/2000/svg" width="112.86" height="84" viewBox="0 0 112.86 84"><defs><style>.cls-1{fill:none;stroke:red;stroke-linecap:round;stroke-linejoin:round;stroke-width:2px;}</style></defs><title>users</title><path class="cls-1" d="M-670.45-12.77" transform="translate(726.88 52)"/><path class="cls-1" d="M-703.79-18.92a34.46,34.46,0,0,1,26.53-27.85" transform="translate(726.88 52)"/><path class="cls-1" d="M-637.12-18.92a34.44,34.44,0,0,0-26.53-27.85" transform="translate(726.88 52)"/><path class="cls-1" d="M-637.12-6.63a34.43,34.43,0,0,1-26.53,27.85" transform="translate(726.88 52)"/><path class="cls-1" d="M-703.79-6.63a34.44,34.44,0,0,0,26.53,27.85" transform="translate(726.88 52)"/><line class="cls-1" x1="56.43" y1="65.8" x2="56.43" y2="77.46"/><line class="cls-1" x1="56.43" y1="1" x2="56.43" y2="14.19"/><line class="cls-1" x1="83" y1="39.23" x2="94.66" y2="39.23"/><line class="cls-1" x1="18.2" y1="39.23" x2="31.39" y2="39.23"/><path class="cls-1" d="M-658.45-17.88c0,6.34-5.13,14.47-11.47,14.47s-11.47-8.13-11.47-14.47a11.47,11.47,0,0,1,11.47-11.46A11.46,11.46,0,0,1-658.45-17.88Z" transform="translate(726.88 52)"/><path class="cls-1" d="M-689,15.71A19.12,19.12,0,0,1-669.92-3.41,19.12,19.12,0,0,1-650.8,15.71" transform="translate(726.88 52)"/><circle class="cls-1" cx="21.07" cy="67.71" r="5.73"/><path class="cls-1" d="M-715.37,31a9.56,9.56,0,0,1,9.56-9.56A9.56,9.56,0,0,1-696.26,31" transform="translate(726.88 52)"/><circle class="cls-1" cx="10.56" cy="50.51" r="5.73"/><path class="cls-1" d="M-725.88,13.8a9.55,9.55,0,0,1,9.55-9.56c3.13,0,3.69-.14,5.74,1.91" transform="translate(726.88 52)"/><circle class="cls-1" cx="102.31" cy="50.51" r="5.73"/><path class="cls-1" d="M-615,13.8a9.56,9.56,0,0,0-9.56-9.56c-3.12,0-3.68-.14-5.73,1.91" transform="translate(726.88 52)"/><circle class="cls-1" cx="90.84" cy="67.71" r="5.73"/><path class="cls-1" d="M-645.6,31A9.56,9.56,0,0,1-636,21.44,9.56,9.56,0,0,1-626.49,31" transform="translate(726.88 52)"/></svg>