<svg id="Слой_1" data-name="Слой 1" xmlns="http://www.w3.org/2000/svg" width="91" height="86"><defs><style>.cls-1{fill:none;stroke:red;stroke-linecap:round;stroke-linejoin:round;stroke-width:2px}</style></defs><path class="cls-1" d="M48.97 43.25l5.54 26.83 6.29-6.29 11.88 11.88 8.71-8.71-11.88-11.88 6.28-6.29-26.82-5.54z"/><path class="cls-1" d="M-687.78 393h-16.46a3.76 3.76 0 01-3.76-3.76v-11.48a3.76 3.76 0 013.76-3.76h41.48a3.76 3.76 0 013.76 3.76v9.17" transform="translate(729 -345)"/><path class="cls-1" d="M-681.22 418h-40.41a6.37 6.37 0 01-6.37-6.37v-59.26a6.37 6.37 0 016.37-6.37h76.26a6.37 6.37 0 016.37 6.37v59.26" transform="translate(729 -345)"/><path class="cls-1" d="M1 13h89M34 73v12m-16 0h54M27 38h36M84 7h-4m-4 0h-4m-4 0h-4"/></svg>