<svg id="Слой_1" data-name="Слой 1" xmlns="http://www.w3.org/2000/svg" width="98.98" height="89.48"><defs><style>.cls-1{fill:none;stroke:red;stroke-linecap:round;stroke-linejoin:round;stroke-width:2px}</style></defs><path class="cls-1" d="M58.65 88.23l28.86-28.87L95.15 67l2.83-28-28 2.83 7.63 7.63-21.37 21.37m-4.09-26.1l23.36-23.37L83.15 29l2.83-28-28 2.83 7.63 7.63-24.75 24.75"/><circle class="cls-1" cx="25" cy="63.48" r="24"/><path d="M-697.15 146.19h-5.45v4.49h-3.11v-4.49h-3.36v-2.55h3.36v-2.23h-3.36v-2.56h3.36V127h8.71a8.9 8.9 0 016 1.93 6.61 6.61 0 012.22 5.24 6.74 6.74 0 01-2.13 5.34 8.94 8.94 0 01-6.08 1.9h-5.67v2.23h5.45zm-5.45-7.34h5.6a5.57 5.57 0 003.84-1.18 4.44 4.44 0 001.32-3.47 4.38 4.38 0 00-1.37-3.35 5.25 5.25 0 00-3.69-1.3h-5.72z" transform="translate(724.89 -76.52)" fill="red"/><path class="cls-1" d="M23.39 32.98l22.5-22.5m18 37l-9 9m31 19l-13 13"/></svg>