<svg id="Слой_1" data-name="Слой 1" xmlns="http://www.w3.org/2000/svg" width="90.85" height="88.44"><defs><style>.cls-1{fill:none;stroke:red;stroke-linecap:round;stroke-linejoin:round;stroke-width:2px}</style></defs><path class="cls-1" d="M-656.23 517.18a17.61 17.61 0 00-.1-2.07l11.86-5.16a36.24 36.24 0 00-5.08-12.7l-11.63 5a24.44 24.44 0 00-4.44-4.59l4.71-11.93a37.63 37.63 0 00-12.65-5.2l-4.69 11.88a21.26 21.26 0 00-2.89-.18 23.36 23.36 0 00-3.76.3l-5.1-11.68a37.86 37.86 0 00-12.48 5.63l5.1 11.79a25.82 25.82 0 00-4.25 4.73l-11.79-4.66a37.06 37.06 0 00-4.58 12.88l12 4.74v1.22a23.78 23.78 0 00.4 4.43l-11.63 5.06a36.67 36.67 0 005.85 12.38l11.83-5.16a24.37 24.37 0 003.69 3.34l-4.68 11.86a37.4 37.4 0 0012.8 4.86l4.71-11.94c.62 0 1.29.08 1.94.08a24.75 24.75 0 002.74-.15l5.13 11.78a37.31 37.31 0 0012.64-5.3l-5.09-11.69a23.51 23.51 0 003.59-3.46l12 4.73a36.46 36.46 0 005.43-12.55l-11.81-4.66a25.24 25.24 0 00.23-3.61zm-16 4.51l-.22.44a9.51 9.51 0 01-4.31 4 7.89 7.89 0 01-1.74.65 9.44 9.44 0 01-2.57.35 9.91 9.91 0 01-2.26-.27 8.58 8.58 0 01-1.77-.6 9.83 9.83 0 01-4.38-3.81l-.3-.53a9.92 9.92 0 01-1.22-4.75 9.68 9.68 0 01.2-2 6.41 6.41 0 01.35-1.27 9.81 9.81 0 013.88-5.06 9 9 0 012.39-1.15 9.62 9.62 0 013.14-.52 9.32 9.32 0 012.77.4 9.91 9.91 0 012.46 1.07 10.09 10.09 0 014 4.86 8.05 8.05 0 01.42 1.34 9.59 9.59 0 01.28 2.3 9.85 9.85 0 01-1.16 4.55z" transform="translate(728.85 -479.56)"/><path class="cls-1" d="M89.85 87.44H1V12.71m11.44 74.73V64.01m45.52 23.43v-4.98M35.2 87.44v-4.98m11.38 4.98v-7.98m-22.76 7.98v-8.98m45.52 8.98V76.46m11.38 10.98V65.5"/></svg>