<svg id="Слой_1" data-name="Слой 1" xmlns="http://www.w3.org/2000/svg" width="91" height="86" viewBox="0 0 91 86"><defs><style>.cls-1{fill:none;stroke:red;stroke-linecap:round;stroke-linejoin:round;stroke-width:2px;}</style></defs><title>buttonClick</title><polygon class="cls-1" points="48.97 43.25 54.51 70.08 60.8 63.79 72.68 75.67 81.39 66.96 69.51 55.08 75.79 48.79 48.97 43.25"/><path class="cls-1" d="M-687.78,393h-16.46a3.76,3.76,0,0,1-3.76-3.76V377.76a3.76,3.76,0,0,1,3.76-3.76h41.48a3.76,3.76,0,0,1,3.76,3.76v9.17" transform="translate(729 -345)"/><path class="cls-1" d="M-681.22,418h-40.41a6.37,6.37,0,0,1-6.37-6.37V352.37a6.37,6.37,0,0,1,6.37-6.37h76.26a6.37,6.37,0,0,1,6.37,6.37v59.26" transform="translate(729 -345)"/><line class="cls-1" x1="1" y1="13" x2="90" y2="13"/><line class="cls-1" x1="34" y1="73" x2="34" y2="85"/><line class="cls-1" x1="18" y1="85" x2="72" y2="85"/><line class="cls-1" x1="27" y1="38" x2="63" y2="38"/><line class="cls-1" x1="84" y1="7" x2="80" y2="7"/><line class="cls-1" x1="76" y1="7" x2="72" y2="7"/><line class="cls-1" x1="68" y1="7" x2="64" y2="7"/></svg>