<svg id="Слой_1" data-name="Слой 1" xmlns="http://www.w3.org/2000/svg" width="90.85" height="88.44" viewBox="0 0 90.85 88.44"><defs><style>.cls-1{fill:none;stroke:red;stroke-linecap:round;stroke-linejoin:round;stroke-width:2px;}</style></defs><title>gear</title><path class="cls-1" d="M-656.23,517.18a17.61,17.61,0,0,0-.1-2.07l11.86-5.16a36.24,36.24,0,0,0-5.08-12.7l-11.63,5a24.44,24.44,0,0,0-4.44-4.59l4.71-11.93a37.63,37.63,0,0,0-12.65-5.2l-4.69,11.88a21.26,21.26,0,0,0-2.89-.18,23.36,23.36,0,0,0-3.76.3h0L-690,480.85a37.86,37.86,0,0,0-12.48,5.63l5.1,11.79a25.82,25.82,0,0,0-4.25,4.73l-11.79-4.66A37.06,37.06,0,0,0-718,511.22l12,4.74c0,.39,0,.79,0,1.22a23.78,23.78,0,0,0,.4,4.43l-11.63,5.06a36.67,36.67,0,0,0,5.85,12.38l11.83-5.16a24.37,24.37,0,0,0,3.69,3.34l-4.68,11.86a37.4,37.4,0,0,0,12.8,4.86l4.71-11.94c.62,0,1.29.08,1.94.08a24.75,24.75,0,0,0,2.74-.15l5.13,11.78a37.31,37.31,0,0,0,12.64-5.3l-5.09-11.69a23.51,23.51,0,0,0,3.59-3.46l12,4.73a36.46,36.46,0,0,0,5.43-12.55l-11.81-4.66A25.24,25.24,0,0,0-656.23,517.18Zm-16,4.51-.22.44h0a9.51,9.51,0,0,1-4.31,4,7.89,7.89,0,0,1-1.74.65,9.44,9.44,0,0,1-2.57.35,9.91,9.91,0,0,1-2.26-.27h0a8.58,8.58,0,0,1-1.77-.6,9.83,9.83,0,0,1-4.38-3.81l-.3-.53a9.92,9.92,0,0,1-1.22-4.75,9.68,9.68,0,0,1,.2-2,6.41,6.41,0,0,1,.35-1.27,9.81,9.81,0,0,1,3.88-5.06,9,9,0,0,1,2.39-1.15,9.62,9.62,0,0,1,3.14-.52,9.32,9.32,0,0,1,2.77.4,9.91,9.91,0,0,1,2.46,1.07,10.09,10.09,0,0,1,4,4.86,8.05,8.05,0,0,1,.42,1.34,9.59,9.59,0,0,1,.28,2.3A9.85,9.85,0,0,1-672.27,521.69Z" transform="translate(728.85 -479.56)"/><polyline class="cls-1" points="89.85 87.44 1 87.44 1 12.71"/><path class="cls-1" d="M-720.37,567" transform="translate(728.85 -479.56)"/><line class="cls-1" x1="12.44" y1="87.44" x2="12.44" y2="64.01"/><line class="cls-1" x1="57.96" y1="87.44" x2="57.96" y2="82.46"/><line class="cls-1" x1="35.2" y1="87.44" x2="35.2" y2="82.46"/><line class="cls-1" x1="46.58" y1="87.44" x2="46.58" y2="79.46"/><line class="cls-1" x1="23.82" y1="87.44" x2="23.82" y2="78.46"/><line class="cls-1" x1="69.34" y1="87.44" x2="69.34" y2="76.46"/><line class="cls-1" x1="80.72" y1="87.44" x2="80.72" y2="65.5"/></svg>